#!OML:ASF H:\Terrain\Patient Classification 1\Animal2\Wednesday\Animal2.ASF
:FULLY-SPECIFIED
:DEGREES
282
root 10.3108 17.6759 -9.48713 0.0255721 0.26205 2.04466
lowerback 3.6856 -3.887 -3.55505
upperback -0.524719 -5.32395 0.908928
thorax -2.19159 -2.60699 3.19524
lowerneck 2.71048 8.0343 17.2434
upperneck 1.29303 11.7733 -22.5449
head 2.37117 5.98147 -9.57285
rclavicle 4.75095e-014 1.98785e-015
rhumerus -38.3049 -1.12036 -81.9315
rradius 22.9159
rwrist 15.6476
rhand -16.2576 19.8599
rfingers 7.12502
rthumb 9.9516 -9.8849
lclavicle 4.75095e-014 1.98785e-015
lhumerus -33.1459 -10.2092 88.8628
lradius 27.0586
lwrist 7.5362
lhand -22.9165 23.6667
lfingers 7.12502
lthumb 3.52373 53.6173
rfemur -30.5006 -2.28076 19.202
rtibia 50.448
rfoot -15.1751 -5.80077
rtoes 3.13734
lfemur -4.14458 4.12777 -26.5952
ltibia 23.405
lfoot -20.3319 -2.00849
ltoes -23.7103
283
root 10.3154 17.6697 -9.34006 0.143262 0.486202 2.31957
lowerback 3.63219 -3.87563 -3.79976
upperback -0.413009 -5.31819 0.801715
thorax -2.03516 -2.60709 3.21037
lowerneck 2.02877 7.99732 17.4748
upperneck 1.45453 11.6589 -22.5478
head 2.52626 5.88422 -9.58827
rclavicle 2.15619e-014 -5.1684e-015
rhumerus -38.1755 -1.63013 -81.8016
rradius 22.75
rwrist 15.8668
rhand -16.1776 20.0867
rfingers 7.12502
rthumb 10.0288 -9.65436
lclavicle 2.15619e-014 -5.1684e-015
lhumerus -32.4134 -10.4025 88.4714
lradius 27.8279
lwrist 6.60406
lhand -20.246 25.2503
lfingers 7.12502
lthumb 6.10235 55.1424
rfemur -31.0159 -2.41046 18.9318
rtibia 48.2769
rfoot -15.0835 -5.78651
rtoes 4.14528
lfemur -3.39396 4.21302 -26.8646
ltibia 22.7338
lfoot -20.4502 -2.25072
ltoes -22.8401
284
root 10.3157 17.659 -9.19185 0.272173 0.595764 2.67864
lowerback 3.48475 -3.91838 -4.17488
upperback -0.44761 -5.38742 0.737783
thorax -1.95488 -2.63922 3.34411
lowerneck 2.23004 7.93828 17.3362
upperneck 1.20405 11.5562 -22.4051
head 2.38079 5.84903 -9.53568
rclavicle 2.63825e-014 3.97569e-016
rhumerus -38.2562 -1.93834 -81.6224
rradius 22.4547
rwrist 16.0316
rhand -16.583 20.5897
rfingers 7.12502
rthumb 9.63767 -9.16982
lclavicle 2.63825e-014 3.97569e-016
lhumerus -32.0504 -10.0381 87.9841
lradius 28.901
lwrist 6.08668
lhand -19.422 25.8692
lfingers 7.12502
lthumb 6.8978 55.7368
rfemur -31.5292 -2.46634 18.6332
rtibia 46.0892
rfoot -14.6574 -5.78195
rtoes 3.13146
lfemur -2.53656 4.1978 -27.2315
ltibia 21.8698
lfoot -20.5235 -2.148
ltoes -23.795
285
root 10.3131 17.6561 -9.04172 0.379557 0.665973 2.89992
lowerback 3.38045 -3.93314 -4.38743
upperback -0.444143 -5.41324 0.636991
thorax -1.8811 -2.65214 3.35023
lowerneck 2.23493 7.9377 17.3451
upperneck 1.03313 11.5228 -22.2411
head 2.31438 5.83618 -9.48491
rclavicle 2.30466e-015 1.59028e-015
rhumerus -38.3312 -2.49167 -81.4605
rradius 22.2266
rwrist 16.4526
rhand -16.8994 20.7151
rfingers 7.12502
rthumb 9.33244 -9.05837
lclavicle 2.30466e-015 1.59028e-015
lhumerus -31.7035 -10.4111 87.7104
lradius 29.9449
lwrist 8.45031
lhand -20.2362 25.2616
lfingers 7.12502
lthumb 6.11176 55.1535
rfemur -31.8662 -2.47432 18.4995
rtibia 43.8377
rfoot -14.1563 -5.4727
rtoes 2.15673
lfemur -1.55821 4.16948 -27.429
ltibia 20.9084
lfoot -20.5744 -2.03524
ltoes -24.8039
286
root 10.3126 17.6602 -8.89037 0.448226 0.808129 2.98304
lowerback 3.35999 -3.99577 -4.58177
upperback -0.394448 -5.50217 0.65877
thorax -1.79042 -2.69784 3.47822
lowerneck 2.02032 7.9894 17.4801
upperneck 1.02793 11.5701 -22.2906
head 2.37194 5.84838 -9.5103
rclavicle 2.70658e-014 -8.34896e-015
rhumerus -38.2954 -2.76803 -81.2982
rradius 22.0312
rwrist 16.7783
rhand -16.763 20.6821
rfingers 7.12502
rthumb 9.46404 -9.08535
lclavicle 2.70658e-014 -8.34896e-015
lhumerus -31.4419 -11.2545 87.9516
lradius 30.8587
lwrist 12.7128
lhand -22.5111 23.459
lfingers 7.12502
lthumb 3.91525 53.4028
rfemur -32.0183 -2.51777 18.4388
rtibia 41.4802
rfoot -14.2652 -4.94522
rtoes 2.7542
lfemur -0.558569 4.21235 -27.4566
ltibia 20.0086
lfoot -20.6507 -2.3908
ltoes -24.1293
287
root 10.3141 17.6668 -8.73927 0.440262 0.955066 2.85244
lowerback 3.38482 -4.05897 -4.52141
upperback -0.382066 -5.58292 0.761936
thorax -1.77948 -2.73909 3.55453
lowerneck 2.00996 7.99315 17.466
upperneck 1.0424 11.5738 -22.2491
head 2.37485 5.84946 -9.49261
rclavicle -6.61642e-014 -1.39149e-014
rhumerus -38.4184 -2.97143 -81.1162
rradius 21.8646
rwrist 16.8625
rhand -16.5201 20.9256
rfingers 7.12502
rthumb 9.69835 -8.83112
lclavicle -6.61642e-014 -1.39149e-014
lhumerus -30.8881 -10.2222 87.19
lradius 31.3493
lwrist 10.1419
lhand -19.4981 24.359
lfingers 7.12502
lthumb 6.82435 54.229
rfemur -32.0169 -2.40809 18.568
rtibia 39.0226
rfoot -14.7432 -4.57066
rtoes 1.79098
lfemur 0.463583 4.24581 -27.2464
ltibia 19.1639
lfoot -20.7015 -2.93493
ltoes -22.6831
